. 
  
http://www.torrenting.com/        :     Greatest Movie Tracker on The Net!!!
 
http://www.Torrenting.com          :     Once & For all ;)


               www . Torrenting . Com 

(((((((((((((= Enjoy No RAR releases =))))))))))))))))))))


...................................NFO:....................................

.[img]http://img833.imageshack.us/img833/2917/arctics.jpg[/img]

[color=blue][size=5][b]Arctic Blast 2010 BDRip XVID AC3 HQ Hive-CM8[/b][/size][/color]



[b]Thx Hive

CM8 Doing It Right The First Time :D

Why download a touched up rip of a rip BRrip
Get the real deal BDRip
Enjoy

Source Bluray

Video: 720x400 @bitrate 1900 2pass
Audio: English DTS to AC3 5.1 @448
Sample: yes included[/b]


[url]http://www.imdb.com/title/tt1523267/[/url]


General
Complete name                    : Arctic.Blast.2010.BDRip.XVID.AC3.HQ.Hive-CM8.avi
Format                           : AVI
Format/Info                      : Audio Video Interleave
File size                        : 1.51 GiB
Duration                         : 1h 31mn
Overall bit rate                 : 2 357 Kbps
Writing application              : Nandub v1.0rc2
Writing library                  : Nandub build 1853/release

Video
ID                               : 0
Format                           : MPEG-4 Visual
Format profile                   : Advanced Simple@L5
Format settings, BVOP            : Yes
Format settings, QPel            : Yes
Format settings, GMC             : No warppoints
Format settings, Matrix          : Default (H.263)
Muxing mode                      : Packed bitstream
Codec ID                         : XVID
Codec ID/Hint                    : XviD
Duration                         : 1h 31mn
Bit rate                         : 1 899 Kbps
Width                            : 720 pixels
Height                           : 400 pixels
Display aspect ratio             : 16:9
Frame rate                       : 23.976 fps
Color space                      : YUV
Chroma subsampling               : 4:2:0
Bit depth                        : 8 bits
Scan type                        : Progressive
Bits/(Pixel*Frame)               : 0.275
Stream size                      : 1.22 GiB (81%)
Writing library                  : XviD 1.2.1 (UTC 2008-12-04)

Audio
ID                               : 1
Format                           : AC-3
Format/Info                      : Audio Coding 3
Mode extension                   : CM (complete main)
Codec ID                         : 2000
Duration                         : 1h 31mn
Bit rate mode                    : Constant
Bit rate                         : 448 Kbps
Channel(s)                       : 6 channels
Channel positions                : Front: L C R, Side: L R, LFE
Sampling rate                    : 48.0 KHz
Bit depth                        : 16 bits
Stream size                      : 294 MiB (19%)
Alignment                        : Split accross interleaves
Interleave, duration             : 42 ms (1.00 video frame)
Interleave, preload duration     : 500 ms




Michael Shanks	 ... 	Jack Tate
Alan Andrews	... 	Harold
John Andrews	... 	Supervisor
Judith Baribeau		
Megan Bignell	... 	Local Reporter
Rogan Brown	... 	Fisherman #1



When a solar eclipse sends a colossal blast of super chilled air towards the earth, 
it then sets off a catastrophic chain of events that threatens to engulf the world 
in ice and begin a new Ice Age. 


[img]http://img684.imageshack.us/img684/476/75954528.png[/img]
[img]http://img189.imageshack.us/img189/6889/arara.png[/img]
[img]http://img11.imageshack.us/img11/8049/araraarraararr.png[/img]
[img]http://img812.imageshack.us/img812/8262/araraarrar.png[/img]
[img]http://img193.imageshack.us/img193/431/ararar.png[/img]
[img]http://img864.imageshack.us/img864/357/arararar.png[/img]
[img]http://img11.imageshack.us/img11/1771/araraarraarr.png[/img]




Greetz

ViSiON,LUSi,,MAGNET,CLASSiFiED,THC,T0XiCiNK,IMAGiNE,WBZ,FLAWL3SS,NOVA
Vik,Rapeseed,D2U,SAFC,goldadvance,MEMORY100,KaN1vE,Unevano,Pinnz,Wayne,Mr Hive
and all P2P groups
Great Work Guys :D

CM8@hushmail.com